HIERARCHY
ROOT SpineBase
{
  OFFSET 0.000000 0.000000 0.000000
  CHANNELS 6 Xposition Yposition Zposition Zrotation Xrotation Yrotation
  JOINT SpineMid
  {
    OFFSET 0.000000 34.158066 0.000000
    CHANNELS 3 Zrotation Xrotation Yrotation
    JOINT SpineShoulder
    {
      OFFSET 0.181512 25.295328 -0.762145
      CHANNELS 3 Zrotation Xrotation Yrotation
      JOINT Neck
      {
        OFFSET 0.158850 8.335551 -0.527890
        CHANNELS 3 Zrotation Xrotation Yrotation
        JOINT Head
        {
          OFFSET 3.092968 12.830467 6.668975
          CHANNELS 3 Zrotation Xrotation Yrotation
          End Site
          {
            OFFSET 0 0 0
          }
        }
      }
      JOINT ShoulderLeft
      {
        OFFSET 0.477190 -4.496952 -16.151997
        CHANNELS 3 Zrotation Xrotation Yrotation
        JOINT ElbowLeft
        {
          OFFSET 0.124652 -25.784826 -6.765727
          CHANNELS 3 Zrotation Xrotation Yrotation
          JOINT WristLeft
          {
            OFFSET 6.875353 -24.451799 0.000352
            CHANNELS 3 Zrotation Xrotation Yrotation
            JOINT HandLeft
            {
              OFFSET -0.612445 -8.173316 2.385689
              CHANNELS 3 Zrotation Xrotation Yrotation
              JOINT HandTipLeft
              {
                OFFSET 3.616505 -5.476638 1.148572
                CHANNELS 3 Zrotation Xrotation Yrotation
                End Site
                {
                  OFFSET 0 0 0
                }
              }
              JOINT ThumbLeft
              {
                OFFSET -4.599967 -1.557867 1.075012
                CHANNELS 3 Zrotation Xrotation Yrotation
                End Site
                {
                  OFFSET 0 0 0
                }
              }
            }
          }
        }
      }
      JOINT ShoulderRight
      {
        OFFSET 3.770327 -4.702039 16.529755
        CHANNELS 3 Zrotation Xrotation Yrotation
        JOINT ElbowRight
        {
          OFFSET -2.862959 -28.802871 2.185303
          CHANNELS 3 Zrotation Xrotation Yrotation
          JOINT WristRight
          {
            OFFSET 9.573370 -27.733296 6.232833
            CHANNELS 3 Zrotation Xrotation Yrotation
            JOINT HandRight
            {
              OFFSET -5.312759 -7.390427 0.902645
              CHANNELS 3 Zrotation Xrotation Yrotation
              JOINT HandTipRight
              {
                OFFSET -0.048970 -1.654689 -1.614397
                CHANNELS 3 Zrotation Xrotation Yrotation
                End Site
                {
                  OFFSET 0 0 0
                }
              }
              JOINT ThumbRight
              {
                OFFSET 1.271859 1.214626 -1.744219
                CHANNELS 3 Zrotation Xrotation Yrotation
                End Site
                {
                  OFFSET 0 0 0
                }
              }
            }
          }
        }
      }
    }
  }
  JOINT HipLeft
  {
    OFFSET 0.005410 1.470255 -7.966961
    CHANNELS 3 Zrotation Xrotation Yrotation
    JOINT KneeLeft
    {
      OFFSET -5.004404 -33.594328 -5.928376
      CHANNELS 3 Zrotation Xrotation Yrotation
      JOINT AnkleLeft
      {
        OFFSET -10.013175 -34.262830 -1.937483
        CHANNELS 3 Zrotation Xrotation Yrotation
        JOINT FootLeft
        {
          OFFSET 11.144060 -4.387288 -4.013037
          CHANNELS 3 Zrotation Xrotation Yrotation
          End Site
          {
            OFFSET 0 0 0
          }
        }
      }
    }
  }
  JOINT HipRight
  {
    OFFSET 1.877128 -0.199775 1.142760
    CHANNELS 3 Zrotation Xrotation Yrotation
    JOINT KneeRight
    {
      OFFSET -0.639232 -33.166248 -12.674286
      CHANNELS 3 Zrotation Xrotation Yrotation
      JOINT AnkleRight
      {
        OFFSET -15.130315 -38.156810 19.255772
        CHANNELS 3 Zrotation Xrotation Yrotation
        JOINT FootRight
        {
          OFFSET 12.614068 -3.732139 -4.529211
          CHANNELS 3 Zrotation Xrotation Yrotation
          End Site
          {
            OFFSET 0 0 0
          }
        }
      }
    }
  }
}
MOTION
Frames: 9
Frame Time: 0.033333
-92.691559 81.924048 332.412986 -0.129177 0.924125 -80.355322 -0.325330 0.152453 80.347835 0.099980 -0.010357 -0.008568 0.528810 0.073490 -0.602719 0.000000 0.000000 0.000000 -0.161948 -0.101581 0.048484 0.094757 -1.158543 -0.029585 6.859833 -3.695779 2.490644 -5.844893 14.769182 5.207778 0.000000 0.000000 0.000000 0.000000 0.000000 0.000000 -0.066207 -1.260043 0.019079 -0.000000 0.000000 0.000000 -0.889298 0.120522 -0.193269 0.563070 -2.858003 0.605013 0.000000 0.000000 0.000000 0.000000 0.000000 0.000000 0.932705 -0.027467 80.356587 1.724058 0.828367 -0.353463 -1.719100 -0.838612 0.328417 0.000000 0.000000 0.000000 12.128559 -0.390333 80.017150 -1.028340 17.858134 -2.061239 -54.106446 -26.817372 11.243498 0.000000 0.000000 0.000000
-92.580750 81.979899 332.823762 0.054498 0.993424 -80.301743 -0.334375 0.113900 80.295616 0.116555 -0.013960 -0.003246 2.186264 0.545500 -1.675683 0.000000 0.000000 0.000000 0.234140 0.126468 -0.100455 0.354799 -2.050393 -0.034736 7.035331 -3.912700 3.011638 -4.788625 16.448229 5.460910 0.000000 0.000000 0.000000 0.000000 0.000000 0.000000 -0.226788 -1.328272 0.008316 -0.000000 0.000000 0.000000 -0.939781 0.127171 -0.203986 0.839757 -2.213686 0.374182 0.000000 0.000000 0.000000 0.000000 0.000000 0.000000 -0.008218 0.177215 80.109173 1.519791 -0.232115 -0.121335 -1.641779 -1.126469 -0.589982 0.000000 0.000000 0.000000 13.530876 1.635301 78.808627 -4.398732 20.158617 -1.478784 -51.603564 -26.539178 6.007193 0.000000 0.000000 0.000000
-92.349942 82.315634 333.349387 0.336108 1.099117 -79.340404 -0.382362 0.150418 79.338903 0.189740 -0.005029 0.010499 3.637755 1.425881 -2.912544 0.000000 0.000000 0.000000 0.601145 0.005846 -0.309487 -0.023998 -2.273382 0.114732 7.518811 -4.711833 3.445526 -5.661044 17.623120 5.283228 0.000000 0.000000 0.000000 0.000000 0.000000 0.000000 -0.603286 -1.497550 -0.017534 -0.000000 0.000000 0.000000 -0.994396 0.134353 -0.215558 1.116098 -1.486542 0.145661 0.000000 0.000000 0.000000 0.000000 0.000000 0.000000 -1.168266 0.042832 78.969187 1.458737 -1.492588 0.100785 -1.431671 -1.163092 -0.875763 0.000000 0.000000 0.000000 14.274299 0.434217 78.250027 -3.344026 25.173383 -3.472789 -58.015443 -28.493597 -11.372463 0.000000 0.000000 0.000000
-92.070484 82.312596 333.925511 0.749646 1.307181 -79.162589 -0.422488 0.205179 79.166851 0.251695 -0.044418 0.029146 4.237606 2.668165 -3.912721 0.000000 0.000000 0.000000 1.112698 -0.248903 -0.594734 -0.536107 -2.635233 0.284111 7.456251 -4.580682 3.684746 -7.743420 17.873185 5.154229 0.000000 0.000000 0.000000 0.000000 0.000000 0.000000 -1.124747 -1.715518 -0.055315 -0.000000 0.000000 0.000000 -1.052887 0.142085 -0.227964 1.053447 -0.137871 0.230537 0.000000 0.000000 0.000000 0.000000 0.000000 0.000000 -2.277203 -0.357010 78.613962 1.607290 -2.727021 0.292097 -1.274147 -1.243737 -1.223763 0.000000 0.000000 0.000000 15.111520 -3.320140 79.867999 2.272623 32.872693 -8.227415 -65.208534 -28.690395 -37.432091 0.000000 0.000000 0.000000
-91.596528 82.491025 335.341733 1.467883 0.594099 -81.497028 -1.000658 0.147447 81.510385 0.254894 -0.598045 0.069752 3.997804 5.030395 -4.664541 0.000000 0.000000 0.000000 1.823864 0.672963 -1.012969 -1.026956 -3.366938 0.509724 5.917775 -4.379877 3.569791 -9.044474 18.676586 5.777281 0.000000 0.000000 0.000000 0.000000 0.000000 0.000000 -1.722382 -1.004851 -0.104953 -0.000000 0.000000 0.000000 -1.123276 0.151569 -0.242997 1.123912 -0.146775 0.245923 0.000000 0.000000 0.000000 0.000000 0.000000 0.000000 -5.037246 -0.818053 80.593006 1.248081 -4.708314 0.618923 -0.683414 -1.273195 -1.458468 0.000000 0.000000 0.000000 13.732284 -7.701081 84.566051 12.367365 41.280164 -16.462689 -66.020332 -28.472405 -74.020435 0.000000 0.000000 0.000000
-91.455247 83.016694 335.917800 1.831740 1.168403 -84.436529 -0.598462 0.121762 84.453782 0.461686 0.124274 0.073402 3.420257 6.347018 -5.240503 0.000000 0.000000 0.000000 2.797949 0.129786 -1.409732 -1.835878 -3.799137 0.930221 3.619585 -4.699240 3.152438 -9.258805 19.271116 6.483559 0.000000 0.000000 0.000000 0.000000 0.000000 0.000000 -2.360594 -1.895528 -0.152229 -0.000000 0.000000 0.000000 -1.197256 0.161531 -0.258767 1.197978 -0.156087 0.262087 0.000000 0.000000 0.000000 0.000000 0.000000 0.000000 -4.598430 -0.432006 83.308777 -0.626076 -4.936492 0.747674 0.266893 -1.303500 -1.532248 0.000000 0.000000 0.000000 15.452829 -11.995111 90.077966 27.372117 50.106687 -28.583197 -66.624954 -35.763707 -92.246608 0.000000 0.000000 0.000000
-91.689872 83.727017 335.681032 1.845339 2.833397 -87.066644 0.092204 0.360335 87.077708 0.442353 0.891717 0.041717 1.614531 5.831105 -4.618559 0.000000 0.000000 0.000000 4.329128 -1.400426 -1.688537 -2.927918 -3.659652 1.509741 -0.676286 -7.292819 2.134712 -6.092341 20.347854 6.756509 0.000000 0.000000 0.000000 0.000000 0.000000 0.000000 -2.659919 -3.646716 -0.183205 -0.000000 0.000000 0.000000 -1.260435 0.169851 -0.272082 1.261232 -0.163823 0.275753 0.000000 0.000000 0.000000 0.000000 0.000000 0.000000 -0.934065 1.417722 85.912740 -4.114847 -2.958478 0.746624 1.532520 -1.445080 -1.510252 0.000000 0.000000 0.000000 19.140238 -15.016450 94.949504 49.074139 57.480426 -47.141587 -76.795093 -40.766277 -108.190371 0.000000 0.000000 0.000000
-92.174877 84.522536 334.944581 1.686007 5.122949 -89.771586 0.684006 0.791872 89.779865 0.336794 1.543073 -0.003439 0.477542 4.955044 -4.356240 0.000000 0.000000 0.000000 5.951189 -3.332791 -1.773434 -4.166830 -3.720832 2.053381 -3.889036 -7.100818 1.065413 -3.936375 19.957960 7.614861 0.000000 0.000000 0.000000 0.000000 0.000000 0.000000 -0.193920 -8.865558 0.613799 -1.592590 2.073649 -0.520165 -3.768625 0.926096 -0.302588 2.761363 -0.089876 0.411189 0.000000 0.000000 0.000000 0.000000 0.000000 0.000000 3.438007 4.588170 88.442566 -8.984472 -0.824289 1.045808 3.340837 -1.565311 -1.603168 0.000000 0.000000 0.000000 24.223839 -16.219069 99.286596 80.659602 61.179301 -76.529697 -94.475816 -39.510130 -125.238745 0.000000 0.000000 0.000000
-92.701732 85.352822 333.955348 1.558580 7.777563 -91.985351 1.059639 1.199525 91.996315 0.208810 1.943247 -0.050748 -0.257939 3.415303 -4.214705 0.000000 0.000000 0.000000 7.351116 -5.274385 -1.652694 -5.212893 -4.021212 2.517153 -5.845402 -5.287808 0.262095 -2.910606 16.345923 7.025881 0.000000 0.000000 0.000000 0.000000 0.000000 0.000000 -0.960378 -10.841768 0.462683 -1.178090 1.576498 -0.408758 -3.258145 0.768931 -0.297207 2.484691 -0.103320 0.386009 0.000000 0.000000 0.000000 0.000000 0.000000 0.000000 8.073064 8.461568 90.293907 -14.034884 1.424682 1.622576 4.917782 -1.771469 -1.739114 0.000000 0.000000 0.000000 29.432361 -15.980522 102.295218 97.678181 59.655598 -91.663483 -106.763068 -35.351315 -123.365341 0.000000 0.000000 0.000000
